<?xml version="1.0" encoding="UTF-8" standalone="no"?>
<!DOCTYPE svg PUBLIC "-//W3C//DTD SVG 1.1//EN"
 "http://www.w3.org/Graphics/SVG/1.1/DTD/svg11.dtd">
<!-- Generated by graphviz version 2.36.0 (20140111.2315)
 -->
<!-- Title: main Pages: 1 -->
<svg width="928pt" height="324pt"
 viewBox="0.00 0.00 928.00 323.52" xmlns="http://www.w3.org/2000/svg" xmlns:xlink="http://www.w3.org/1999/xlink">
<g id="graph0" class="graph" transform="scale(1 1) rotate(0) translate(4 319.519)">
<title>main</title>
<polygon fill="white" stroke="none" points="-4,4 -4,-319.519 924,-319.519 924,4 -4,4"/>
<!-- Node1 -->
<g id="node1" class="node"><title>Node1</title>
<polygon fill="#bfbfbf" stroke="black" points="0,-145.5 0,-164.5 38,-164.5 38,-145.5 0,-145.5"/>
<text text-anchor="middle" x="19" y="-152.5" font-family="Helvetica,sans-Serif" font-size="10.00">main</text>
</g>
<!-- Node2 -->
<g id="node2" class="node"><title>Node2</title>
<g id="a_node2"><a xlink:href="classPet.html#a8238766d22d63f1529bf5a4ee233b0fb" target="_top" xlink:title="Pet::main">
<polygon fill="white" stroke="black" points="74.5,-145.5 74.5,-164.5 133.5,-164.5 133.5,-145.5 74.5,-145.5"/>
<text text-anchor="middle" x="104" y="-152.5" font-family="Helvetica,sans-Serif" font-size="10.00">Pet::main</text>
</a>
</g>
</g>
<!-- Node1&#45;&gt;Node2 -->
<g id="edge1" class="edge"><title>Node1&#45;&gt;Node2</title>
<path fill="none" stroke="midnightblue" d="M38.0098,-155C45.7,-155 54.9949,-155 64.1202,-155"/>
<polygon fill="midnightblue" stroke="midnightblue" points="64.2563,-158.5 74.2563,-155 64.2563,-151.5 64.2563,-158.5"/>
</g>
<!-- Node3 -->
<g id="node3" class="node"><title>Node3</title>
<g id="a_node3"><a xlink:href="ProgramArguments_8cpp.html#a11d81ceff854dd1af345b8cf24990e30" target="_top" xlink:title="processProgramOptions">
<polygon fill="white" stroke="black" points="170,-259.5 170,-278.5 292,-278.5 292,-259.5 170,-259.5"/>
<text text-anchor="middle" x="231" y="-266.5" font-family="Helvetica,sans-Serif" font-size="10.00">processProgramOptions</text>
</a>
</g>
</g>
<!-- Node2&#45;&gt;Node3 -->
<g id="edge2" class="edge"><title>Node2&#45;&gt;Node3</title>
<path fill="none" stroke="midnightblue" d="M115.657,-164.72C137.059,-184.238 185.473,-228.391 211.921,-252.512"/>
<polygon fill="midnightblue" stroke="midnightblue" points="209.622,-255.153 219.37,-259.305 214.339,-249.98 209.622,-255.153"/>
</g>
<!-- Node7 -->
<g id="node7" class="node"><title>Node7</title>
<g id="a_node7"><a xlink:href="classPet.html#a9236dd30e2de4eb158a16478165ac719" target="_top" xlink:title="Pet::processStreams">
<polygon fill="white" stroke="black" points="176.5,-145.5 176.5,-164.5 285.5,-164.5 285.5,-145.5 176.5,-145.5"/>
<text text-anchor="middle" x="231" y="-152.5" font-family="Helvetica,sans-Serif" font-size="10.00">Pet::processStreams</text>
</a>
</g>
</g>
<!-- Node2&#45;&gt;Node7 -->
<g id="edge8" class="edge"><title>Node2&#45;&gt;Node7</title>
<path fill="none" stroke="midnightblue" d="M133.678,-155C143.489,-155 154.892,-155 166.347,-155"/>
<polygon fill="midnightblue" stroke="midnightblue" points="166.388,-158.5 176.388,-155 166.388,-151.5 166.388,-158.5"/>
</g>
<!-- Node23 -->
<g id="node23" class="node"><title>Node23</title>
<g id="a_node23"><a xlink:href="classPet.html#ad4885e9b82415ed2ef8c613ed02e41dc" target="_top" xlink:title="Pet::produceOutput">
<polygon fill="white" stroke="black" points="180.5,-44.5 180.5,-63.5 281.5,-63.5 281.5,-44.5 180.5,-44.5"/>
<text text-anchor="middle" x="231" y="-51.5" font-family="Helvetica,sans-Serif" font-size="10.00">Pet::produceOutput</text>
</a>
</g>
</g>
<!-- Node2&#45;&gt;Node23 -->
<g id="edge26" class="edge"><title>Node2&#45;&gt;Node23</title>
<path fill="none" stroke="midnightblue" d="M116.986,-145.316C138.506,-127.927 183.894,-91.2534 210.132,-70.0536"/>
<polygon fill="midnightblue" stroke="midnightblue" points="212.655,-72.5148 218.233,-63.5075 208.255,-67.07 212.655,-72.5148"/>
</g>
<!-- Node4 -->
<g id="node4" class="node"><title>Node4</title>
<g id="a_node4"><a xlink:href="ProgramArguments_8cpp.html#a989957e0ec004ec89259a291dc40715a" target="_top" xlink:title="vPrint">
<polygon fill="white" stroke="black" points="550,-278.5 550,-297.5 592,-297.5 592,-278.5 550,-278.5"/>
<text text-anchor="middle" x="571" y="-285.5" font-family="Helvetica,sans-Serif" font-size="10.00">vPrint</text>
</a>
</g>
</g>
<!-- Node3&#45;&gt;Node4 -->
<g id="edge3" class="edge"><title>Node3&#45;&gt;Node4</title>
<path fill="none" stroke="midnightblue" d="M250.137,-278.582C268.99,-287.957 299.652,-301.594 328,-307 398.725,-320.489 418.489,-315.375 490,-307 506.819,-305.03 525.228,-300.806 540.143,-296.84"/>
<polygon fill="midnightblue" stroke="midnightblue" points="541.137,-300.197 549.848,-294.166 539.277,-293.448 541.137,-300.197"/>
</g>
<!-- Node5 -->
<g id="node5" class="node"><title>Node5</title>
<g id="a_node5"><a xlink:href="ProgramArguments_8cpp.html#a6ae23c6e80e8629014ba6496f5597408" target="_top" xlink:title="parseAnnotationFile">
<polygon fill="white" stroke="black" points="357.5,-278.5 357.5,-297.5 460.5,-297.5 460.5,-278.5 357.5,-278.5"/>
<text text-anchor="middle" x="409" y="-285.5" font-family="Helvetica,sans-Serif" font-size="10.00">parseAnnotationFile</text>
</a>
</g>
</g>
<!-- Node3&#45;&gt;Node5 -->
<g id="edge4" class="edge"><title>Node3&#45;&gt;Node5</title>
<path fill="none" stroke="midnightblue" d="M292.077,-275.486C309.808,-277.4 329.226,-279.496 347.014,-281.416"/>
<polygon fill="midnightblue" stroke="midnightblue" points="346.955,-284.93 357.273,-282.524 347.707,-277.971 346.955,-284.93"/>
</g>
<!-- Node6 -->
<g id="node6" class="node"><title>Node6</title>
<g id="a_node6"><a xlink:href="ProgramArguments_8cpp.html#ac7761d35648ee9b47c3c90858b11cfd1" target="_top" xlink:title="parseWeightFile">
<polygon fill="white" stroke="black" points="365.5,-240.5 365.5,-259.5 452.5,-259.5 452.5,-240.5 365.5,-240.5"/>
<text text-anchor="middle" x="409" y="-247.5" font-family="Helvetica,sans-Serif" font-size="10.00">parseWeightFile</text>
</a>
</g>
</g>
<!-- Node3&#45;&gt;Node6 -->
<g id="edge6" class="edge"><title>Node3&#45;&gt;Node6</title>
<path fill="none" stroke="midnightblue" d="M292.077,-262.514C312.599,-260.299 335.38,-257.84 355.278,-255.692"/>
<polygon fill="midnightblue" stroke="midnightblue" points="355.827,-259.153 365.394,-254.6 355.076,-252.193 355.827,-259.153"/>
</g>
<!-- Node5&#45;&gt;Node4 -->
<g id="edge5" class="edge"><title>Node5&#45;&gt;Node4</title>
<path fill="none" stroke="midnightblue" d="M460.625,-288C486.589,-288 517.346,-288 539.621,-288"/>
<polygon fill="midnightblue" stroke="midnightblue" points="539.817,-291.5 549.817,-288 539.817,-284.5 539.817,-291.5"/>
</g>
<!-- Node6&#45;&gt;Node4 -->
<g id="edge7" class="edge"><title>Node6&#45;&gt;Node4</title>
<path fill="none" stroke="midnightblue" d="M450.375,-259.589C478.202,-266.198 514.586,-274.839 539.889,-280.849"/>
<polygon fill="midnightblue" stroke="midnightblue" points="539.127,-284.265 549.665,-283.17 540.744,-277.454 539.127,-284.265"/>
</g>
<!-- Node8 -->
<g id="node8" class="node"><title>Node8</title>
<g id="a_node8"><a xlink:href="Pet_8cpp.html#afcba2421388357d21e0a6e8ea67db563" target="_top" xlink:title="doWork">
<polygon fill="white" stroke="black" points="384,-164.5 384,-183.5 434,-183.5 434,-164.5 384,-164.5"/>
<text text-anchor="middle" x="409" y="-171.5" font-family="Helvetica,sans-Serif" font-size="10.00">doWork</text>
</a>
</g>
</g>
<!-- Node7&#45;&gt;Node8 -->
<g id="edge9" class="edge"><title>Node7&#45;&gt;Node8</title>
<path fill="none" stroke="midnightblue" d="M285.762,-160.804C314.421,-163.898 348.82,-167.611 373.816,-170.31"/>
<polygon fill="midnightblue" stroke="midnightblue" points="373.591,-173.806 383.908,-171.399 374.342,-166.846 373.591,-173.806"/>
</g>
<!-- Node20 -->
<g id="node20" class="node"><title>Node20</title>
<g id="a_node20"><a xlink:href="Pet_8cpp.html#a00959af671100a96d26b1fa770f7cdb7" target="_top" xlink:title="findPowerModelMaxSize">
<polygon fill="white" stroke="black" points="346.5,-126.5 346.5,-145.5 471.5,-145.5 471.5,-126.5 346.5,-126.5"/>
<text text-anchor="middle" x="409" y="-133.5" font-family="Helvetica,sans-Serif" font-size="10.00">findPowerModelMaxSize</text>
</a>
</g>
</g>
<!-- Node7&#45;&gt;Node20 -->
<g id="edge23" class="edge"><title>Node7&#45;&gt;Node20</title>
<path fill="none" stroke="midnightblue" d="M285.762,-149.196C301.584,-147.488 319.156,-145.591 335.929,-143.78"/>
<polygon fill="midnightblue" stroke="midnightblue" points="336.68,-147.22 346.247,-142.667 335.929,-140.26 336.68,-147.22"/>
</g>
<!-- Node21 -->
<g id="node21" class="node"><title>Node21</title>
<g id="a_node21"><a xlink:href="Pet_8cpp.html#a0858d4b3906d1a78bef1985ef70f410c" target="_top" xlink:title="sumStats">
<polygon fill="white" stroke="black" points="379.5,-88.5 379.5,-107.5 438.5,-107.5 438.5,-88.5 379.5,-88.5"/>
<text text-anchor="middle" x="409" y="-95.5" font-family="Helvetica,sans-Serif" font-size="10.00">sumStats</text>
</a>
</g>
</g>
<!-- Node7&#45;&gt;Node21 -->
<g id="edge24" class="edge"><title>Node7&#45;&gt;Node21</title>
<path fill="none" stroke="midnightblue" d="M253.412,-145.496C272.66,-137.201 301.841,-125.237 328,-117 341.346,-112.798 356.2,-109.028 369.45,-105.976"/>
<polygon fill="midnightblue" stroke="midnightblue" points="370.226,-109.389 379.219,-103.786 368.695,-102.558 370.226,-109.389"/>
</g>
<!-- Node22 -->
<g id="node22" class="node"><title>Node22</title>
<g id="a_node22"><a xlink:href="Pet_8cpp.html#a5cb2b39f30a980ac3ebd54487a20b3ba" target="_top" xlink:title="normalize">
<polygon fill="white" stroke="black" points="379.5,-202.5 379.5,-221.5 438.5,-221.5 438.5,-202.5 379.5,-202.5"/>
<text text-anchor="middle" x="409" y="-209.5" font-family="Helvetica,sans-Serif" font-size="10.00">normalize</text>
</a>
</g>
</g>
<!-- Node7&#45;&gt;Node22 -->
<g id="edge25" class="edge"><title>Node7&#45;&gt;Node22</title>
<path fill="none" stroke="midnightblue" d="M253.412,-164.504C272.66,-172.799 301.841,-184.763 328,-193 341.346,-197.202 356.2,-200.972 369.45,-204.024"/>
<polygon fill="midnightblue" stroke="midnightblue" points="368.695,-207.442 379.219,-206.214 370.226,-200.611 368.695,-207.442"/>
</g>
<!-- Node9 -->
<g id="node9" class="node"><title>Node9</title>
<g id="a_node9"><a xlink:href="classPowerModel.html#a78e2fa130ecb770bd63455d08b0820fd" target="_top" xlink:title="PowerModel::run">
<polygon fill="white" stroke="black" points="526,-164.5 526,-183.5 616,-183.5 616,-164.5 526,-164.5"/>
<text text-anchor="middle" x="571" y="-171.5" font-family="Helvetica,sans-Serif" font-size="10.00">PowerModel::run</text>
</a>
</g>
</g>
<!-- Node8&#45;&gt;Node9 -->
<g id="edge10" class="edge"><title>Node8&#45;&gt;Node9</title>
<path fill="none" stroke="midnightblue" d="M434.301,-174C455.773,-174 487.873,-174 515.463,-174"/>
<polygon fill="midnightblue" stroke="midnightblue" points="515.785,-177.5 525.785,-174 515.784,-170.5 515.785,-177.5"/>
</g>
<!-- Node10 -->
<g id="node10" class="node"><title>Node10</title>
<g id="a_node10"><a xlink:href="classPowerModel.html#af70b9e4bcaa4c560558ae5ba69c38062" target="_top" xlink:title="PowerModel::calculate">
<polygon fill="white" stroke="black" points="659,-259.5 659,-278.5 775,-278.5 775,-259.5 659,-259.5"/>
<text text-anchor="middle" x="717" y="-266.5" font-family="Helvetica,sans-Serif" font-size="10.00">PowerModel::calculate</text>
</a>
</g>
</g>
<!-- Node9&#45;&gt;Node10 -->
<g id="edge11" class="edge"><title>Node9&#45;&gt;Node10</title>
<path fill="none" stroke="midnightblue" d="M579.543,-183.68C592.595,-199.782 620.986,-232.07 652,-250 655.725,-252.154 659.716,-254.082 663.817,-255.806"/>
<polygon fill="midnightblue" stroke="midnightblue" points="662.921,-259.208 673.512,-259.464 665.392,-252.659 662.921,-259.208"/>
</g>
<!-- Node11 -->
<g id="node11" class="node"><title>Node11</title>
<g id="a_node11"><a xlink:href="classTraceLine.html#a0bf639d273e3cddcd3d32ca2d843102a" target="_top" xlink:title="TraceLine::getSimEvent">
<polygon fill="white" stroke="black" points="656,-221.5 656,-240.5 778,-240.5 778,-221.5 656,-221.5"/>
<text text-anchor="middle" x="717" y="-228.5" font-family="Helvetica,sans-Serif" font-size="10.00">TraceLine::getSimEvent</text>
</a>
</g>
</g>
<!-- Node9&#45;&gt;Node11 -->
<g id="edge12" class="edge"><title>Node9&#45;&gt;Node11</title>
<path fill="none" stroke="midnightblue" d="M594.68,-183.585C610.652,-190.279 632.568,-199.351 652,-207 661.261,-210.645 671.322,-214.478 680.667,-217.984"/>
<polygon fill="midnightblue" stroke="midnightblue" points="679.488,-221.28 690.081,-221.498 681.936,-214.722 679.488,-221.28"/>
</g>
<!-- Node12 -->
<g id="node12" class="node"><title>Node12</title>
<g id="a_node12"><a xlink:href="classPowerModel.html#aa84929d419bb53d1609d60787601a642" target="_top" xlink:title="PowerModel::annotate">
<polygon fill="white" stroke="black" points="660,-145.5 660,-164.5 774,-164.5 774,-145.5 660,-145.5"/>
<text text-anchor="middle" x="717" y="-152.5" font-family="Helvetica,sans-Serif" font-size="10.00">PowerModel::annotate</text>
</a>
</g>
</g>
<!-- Node9&#45;&gt;Node12 -->
<g id="edge13" class="edge"><title>Node9&#45;&gt;Node12</title>
<path fill="none" stroke="midnightblue" d="M616.38,-168.144C626.883,-166.759 638.309,-165.251 649.555,-163.767"/>
<polygon fill="midnightblue" stroke="midnightblue" points="650.343,-167.194 659.799,-162.415 649.427,-160.254 650.343,-167.194"/>
</g>
<!-- Node15 -->
<g id="node15" class="node"><title>Node15</title>
<g id="a_node15"><a xlink:href="classSimEvent.html#a183557c1a6d52349a93f7719d5d23c3e" target="_top" xlink:title="SimEvent::getTick">
<polygon fill="white" stroke="black" points="820,-183.5 820,-202.5 918,-202.5 918,-183.5 820,-183.5"/>
<text text-anchor="middle" x="869" y="-190.5" font-family="Helvetica,sans-Serif" font-size="10.00">SimEvent::getTick</text>
</a>
</g>
</g>
<!-- Node9&#45;&gt;Node15 -->
<g id="edge21" class="edge"><title>Node9&#45;&gt;Node15</title>
<path fill="none" stroke="midnightblue" d="M616.314,-176.844C667.784,-180.148 752.875,-185.61 809.677,-189.256"/>
<polygon fill="midnightblue" stroke="midnightblue" points="809.736,-192.767 819.94,-189.915 810.184,-185.782 809.736,-192.767"/>
</g>
<!-- Node16 -->
<g id="node16" class="node"><title>Node16</title>
<g id="a_node16"><a xlink:href="classPowerModel.html#afefbeca267bb663b753587320695d624" target="_top" xlink:title="PowerModel::updateStats">
<polygon fill="white" stroke="black" points="652.5,-107.5 652.5,-126.5 781.5,-126.5 781.5,-107.5 652.5,-107.5"/>
<text text-anchor="middle" x="717" y="-114.5" font-family="Helvetica,sans-Serif" font-size="10.00">PowerModel::updateStats</text>
</a>
</g>
</g>
<!-- Node9&#45;&gt;Node16 -->
<g id="edge17" class="edge"><title>Node9&#45;&gt;Node16</title>
<path fill="none" stroke="midnightblue" d="M590.077,-164.423C606.065,-156.193 630.176,-144.365 652,-136 657.895,-133.741 664.179,-131.582 670.419,-129.585"/>
<polygon fill="midnightblue" stroke="midnightblue" points="671.605,-132.882 680.127,-126.586 669.539,-126.193 671.605,-132.882"/>
</g>
<!-- Node19 -->
<g id="node19" class="node"><title>Node19</title>
<g id="a_node19"><a xlink:href="PowerModel_8cpp.html#ab61cf8447552ecaa6ba5791879cafe5b" target="_top" xlink:title="cleanStack">
<polygon fill="white" stroke="black" points="684.5,-69.5 684.5,-88.5 749.5,-88.5 749.5,-69.5 684.5,-69.5"/>
<text text-anchor="middle" x="717" y="-76.5" font-family="Helvetica,sans-Serif" font-size="10.00">cleanStack</text>
</a>
</g>
</g>
<!-- Node9&#45;&gt;Node19 -->
<g id="edge22" class="edge"><title>Node9&#45;&gt;Node19</title>
<path fill="none" stroke="midnightblue" d="M579.543,-164.32C592.595,-148.218 620.986,-115.93 652,-98 658.914,-94.0028 666.743,-90.7808 674.493,-88.2064"/>
<polygon fill="midnightblue" stroke="midnightblue" points="675.629,-91.5196 684.193,-85.2821 673.609,-84.8175 675.629,-91.5196"/>
</g>
<!-- Node13 -->
<g id="node13" class="node"><title>Node13</title>
<g id="a_node13"><a xlink:href="classSimEvent.html#ae7598375cea0cd44332964a0e96bf0d2" target="_top" xlink:title="SimEvent::getType">
<polygon fill="white" stroke="black" points="818.5,-107.5 818.5,-126.5 919.5,-126.5 919.5,-107.5 818.5,-107.5"/>
<text text-anchor="middle" x="869" y="-114.5" font-family="Helvetica,sans-Serif" font-size="10.00">SimEvent::getType</text>
</a>
</g>
</g>
<!-- Node12&#45;&gt;Node13 -->
<g id="edge14" class="edge"><title>Node12&#45;&gt;Node13</title>
<path fill="none" stroke="midnightblue" d="M755.851,-145.411C775.467,-140.442 799.619,-134.323 820.479,-129.039"/>
<polygon fill="midnightblue" stroke="midnightblue" points="821.587,-132.369 830.421,-126.52 819.868,-125.583 821.587,-132.369"/>
</g>
<!-- Node14 -->
<g id="node14" class="node"><title>Node14</title>
<g id="a_node14"><a xlink:href="classInstruction.html#aeb99a279a3d8b68217a96a9e171ef52a" target="_top" xlink:title="Instruction::getPC">
<polygon fill="white" stroke="black" points="821,-145.5 821,-164.5 917,-164.5 917,-145.5 821,-145.5"/>
<text text-anchor="middle" x="869" y="-152.5" font-family="Helvetica,sans-Serif" font-size="10.00">Instruction::getPC</text>
</a>
</g>
</g>
<!-- Node12&#45;&gt;Node14 -->
<g id="edge15" class="edge"><title>Node12&#45;&gt;Node14</title>
<path fill="none" stroke="midnightblue" d="M774.281,-155C786.112,-155 798.606,-155 810.481,-155"/>
<polygon fill="midnightblue" stroke="midnightblue" points="810.726,-158.5 820.726,-155 810.726,-151.5 810.726,-158.5"/>
</g>
<!-- Node12&#45;&gt;Node15 -->
<g id="edge16" class="edge"><title>Node12&#45;&gt;Node15</title>
<path fill="none" stroke="midnightblue" d="M755.851,-164.589C775.467,-169.558 799.619,-175.677 820.479,-180.961"/>
<polygon fill="midnightblue" stroke="midnightblue" points="819.868,-184.417 830.421,-183.48 821.587,-177.631 819.868,-184.417"/>
</g>
<!-- Node16&#45;&gt;Node13 -->
<g id="edge18" class="edge"><title>Node16&#45;&gt;Node13</title>
<path fill="none" stroke="midnightblue" d="M781.614,-117C790.452,-117 799.506,-117 808.27,-117"/>
<polygon fill="midnightblue" stroke="midnightblue" points="808.394,-120.5 818.394,-117 808.394,-113.5 808.394,-120.5"/>
</g>
<!-- Node17 -->
<g id="node17" class="node"><title>Node17</title>
<g id="a_node17"><a xlink:href="Instruction_8cpp.html#ad5684e4ba28109e89aa04d676d7631ea" target="_top" xlink:title="instrTypeToString">
<polygon fill="white" stroke="black" points="822,-31.5 822,-50.5 916,-50.5 916,-31.5 822,-31.5"/>
<text text-anchor="middle" x="869" y="-38.5" font-family="Helvetica,sans-Serif" font-size="10.00">instrTypeToString</text>
</a>
</g>
</g>
<!-- Node16&#45;&gt;Node17 -->
<g id="edge19" class="edge"><title>Node16&#45;&gt;Node17</title>
<path fill="none" stroke="midnightblue" d="M761.668,-107.399C768.741,-104.91 775.777,-101.82 782,-98 801.827,-85.83 798.64,-72.9005 818,-60 820.869,-58.0883 823.957,-56.3315 827.141,-54.7249"/>
<polygon fill="midnightblue" stroke="midnightblue" points="828.6,-57.9064 836.264,-50.5907 825.71,-51.5306 828.6,-57.9064"/>
</g>
<!-- Node18 -->
<g id="node18" class="node"><title>Node18</title>
<g id="a_node18"><a xlink:href="Memory_8cpp.html#af9fefeb694e93ccc5012445f506a97ac" target="_top" xlink:title="memTypeToString">
<polygon fill="white" stroke="black" points="820.5,-69.5 820.5,-88.5 917.5,-88.5 917.5,-69.5 820.5,-69.5"/>
<text text-anchor="middle" x="869" y="-76.5" font-family="Helvetica,sans-Serif" font-size="10.00">memTypeToString</text>
</a>
</g>
</g>
<!-- Node16&#45;&gt;Node18 -->
<g id="edge20" class="edge"><title>Node16&#45;&gt;Node18</title>
<path fill="none" stroke="midnightblue" d="M755.851,-107.411C775.467,-102.442 799.619,-96.3233 820.479,-91.0387"/>
<polygon fill="midnightblue" stroke="midnightblue" points="821.587,-94.3687 830.421,-88.5201 819.868,-87.5831 821.587,-94.3687"/>
</g>
<!-- Node24 -->
<g id="node24" class="node"><title>Node24</title>
<g id="a_node24"><a xlink:href="classOutputFormatter.html#a6e943f46315910c846e7762ae40bd1e4" target="_top" xlink:title="OutputFormatter::addAnnotations">
<polygon fill="white" stroke="black" points="328.5,-0.5 328.5,-19.5 489.5,-19.5 489.5,-0.5 328.5,-0.5"/>
<text text-anchor="middle" x="409" y="-7.5" font-family="Helvetica,sans-Serif" font-size="10.00">OutputFormatter::addAnnotations</text>
</a>
</g>
</g>
<!-- Node23&#45;&gt;Node24 -->
<g id="edge27" class="edge"><title>Node23&#45;&gt;Node24</title>
<path fill="none" stroke="midnightblue" d="M267.967,-44.4373C285.97,-39.7007 308.112,-33.9506 328,-29 337.356,-26.6711 347.343,-24.2485 356.978,-21.9439"/>
<polygon fill="midnightblue" stroke="midnightblue" points="357.932,-25.3147 366.849,-19.5937 356.311,-18.505 357.932,-25.3147"/>
</g>
<!-- Node25 -->
<g id="node25" class="node"><title>Node25</title>
<g id="a_node25"><a xlink:href="classOutputFormatter.html#a7258c502a709233a22fa3d299d5b1dac" target="_top" xlink:title="OutputFormatter::produce\lOutput">
<polygon fill="white" stroke="black" points="345,-39 345,-69 473,-69 473,-39 345,-39"/>
<text text-anchor="start" x="353" y="-57" font-family="Helvetica,sans-Serif" font-size="10.00">OutputFormatter::produce</text>
<text text-anchor="middle" x="409" y="-46" font-family="Helvetica,sans-Serif" font-size="10.00">Output</text>
</a>
</g>
</g>
<!-- Node23&#45;&gt;Node25 -->
<g id="edge28" class="edge"><title>Node23&#45;&gt;Node25</title>
<path fill="none" stroke="midnightblue" d="M281.964,-54C298.275,-54 316.745,-54 334.418,-54"/>
<polygon fill="midnightblue" stroke="midnightblue" points="334.709,-57.5001 344.709,-54 334.709,-50.5001 334.709,-57.5001"/>
</g>
</g>
</svg>
